<svg
xmlns="http://www.w3.org/2000/svg"
viewBox="174.520000 -365.480000 2172.960000 2172.960000"
role="img"
aria-label="cpu">
<title>cpu</title>
<g transform="translate(0 1442.000000) scale(1 -1)">
<path d="M255 390C255 342 287 309 335 309H438V-23C438 -71 470 -102 518 -102H849V-205C849 -253 882 -285 930 -285C978 -285 1010 -253 1010 -205V-102H1181V-205C1181 -253 1213 -285 1261 -285C1309 -285 1342 -253 1342 -205V-102H1512V-205C1512 -253 1544 -285 1592 -285C1641 -285 1673 -253 1673 -205V-102H2004C2052 -102 2084 -71 2084 -23V310H2187C2235 310 2267 343 2267 391C2267 439 2235 471 2187 471H2084V642H2187C2235 642 2267 674 2267 722C2267 770 2235 803 2187 803H2084V973H2187C2235 973 2267 1006 2267 1054C2267 1102 2235 1134 2187 1134H2084V1464C2084 1512 2052 1544 2004 1544H1673V1646C1673 1694 1641 1727 1592 1727C1544 1727 1512 1694 1512 1646V1544H1342V1646C1342 1694 1309 1727 1261 1727C1213 1727 1181 1694 1181 1646V1544H1010V1646C1010 1694 978 1727 930 1727C882 1727 849 1694 849 1646V1544H518C470 1544 438 1512 438 1464V1133H335C287 1133 255 1101 255 1053C255 1005 287 972 335 972H438V802H335C287 802 255 769 255 721C255 673 287 641 335 641H438V470H335C287 470 255 438 255 390ZM599 88V1353C599 1375 607 1383 628 1383H1894C1915 1383 1923 1375 1923 1353V88C1923 66 1915 59 1894 59H628C607 59 599 66 599 88ZM890 273H1634C1685 273 1709 297 1709 350V1092C1709 1144 1685 1168 1634 1168H890C839 1168 814 1144 814 1092V350C814 297 839 273 890 273ZM945 428V1013C945 1028 955 1037 969 1037H1554C1569 1037 1578 1028 1578 1013V428C1578 414 1569 404 1554 404H969C955 404 945 414 945 428Z" fill="currentColor"/>
</g>
</svg>
