<svg
xmlns="http://www.w3.org/2000/svg"
viewBox="144.000000 -250.000000 2997.000000 1990.000000"
role="img"
aria-label="hat.widebrim.fill">
<title>hat.widebrim.fill</title>
<g transform="translate(0 1490.000000) scale(1 -1)">
<path d="M1642 -139C2473 -139 3030 148 3030 539C3030 806 2763 1034 2302 1115C2230 1426 2002 1629 1642 1629C1283 1629 1055 1426 982 1115C521 1034 255 806 255 539C255 148 812 -139 1642 -139ZM1640 400C1351 400 1110 474 976 595C963 692 961 819 971 915C1118 785 1384 700 1640 700C1897 700 2163 785 2310 915C2320 819 2318 692 2304 595C2171 474 1930 400 1640 400Z" fill="currentColor"/>
</g>
</svg>
