<svg xmlns="http://www.w3.org/2000/svg" viewBox="181.360000 332.360000 1988.280000 1988.280000" width="256" height="256" data-symbol="49.square.fill"><g transform="translate(0 2048) scale(1 -1)" fill="currentColor"><g data-layer="0" data-components="0"><path data-component="0" d="M569 -199H1782C1992 -199 2096 -96 2096 110V1332C2096 1538 1992 1642 1782 1642H569C360 1642 255 1538 255 1332V110C255 -96 360 -199 569 -199Z" /></g><g data-layer="1" data-components="1,2,3,4"><path data-component="1" d="M959 292C926 292 886 311 886 366V468H656C606 468 571 502 571 552C571 584 577 611 594 651L778 1051C807 1115 842 1152 914 1152C982 1152 1029 1112 1029 1040V588H1065C1106 588 1124 562 1124 529C1124 494 1105 468 1065 468H1029V366C1029 316 997 292 959 292Z" /><path data-component="2" d="M889 585V1022H885L698 592V585Z" /><path data-component="3" d="M1430 593C1293 593 1226 725 1226 864C1226 1026 1317 1158 1474 1158C1683 1158 1745 925 1745 730C1745 519 1684 285 1473 285C1369 285 1280 339 1257 429C1254 441 1251 454 1251 466C1251 500 1270 529 1313 529C1344 529 1365 516 1379 482C1398 438 1429 406 1475 406C1590 406 1604 612 1604 726C1604 729 1604 733 1604 737H1600C1577 649 1514 593 1430 593Z" /><path data-component="4" d="M1476 707C1550 707 1585 791 1585 871C1585 948 1553 1037 1476 1037C1404 1037 1369 948 1369 871C1369 795 1400 707 1476 707Z" /></g></g></svg>