<svg xmlns="http://www.w3.org/2000/svg" viewBox="97.400000 224.400000 2203.200000 2203.200000" width="256" height="256" data-symbol="bird.circle"><g transform="translate(0 2048) scale(1 -1)" fill="currentColor"><g data-layer="0" data-components="0,1"><path data-component="0" d="M1199 -298C1762 -298 2219 159 2219 722C2219 1285 1762 1742 1199 1742C636 1742 179 1285 179 722C179 159 636 -298 1199 -298Z" /><path data-component="1" d="M1199 -128C729 -128 349 252 349 722C349 1192 729 1572 1199 1572C1669 1572 2049 1192 2049 722C2049 252 1669 -128 1199 -128Z" /></g><g data-layer="1" data-components="2,3,4"><path data-component="2" d="M1482 1050C1409 1050 1353 1009 1314 911C1173 1056 947 1186 721 1203C674 1206 668 1172 667 1144C650 895 847 679 1108 661C1038 493 924 360 812 255C794 240 799 217 810 200C868 113 1046 61 1166 102C1192 112 1197 125 1197 146V332C1330 339 1537 423 1508 697L1503 735C1563 750 1611 778 1640 811L1784 790C1816 786 1833 836 1799 849L1671 903C1661 977 1581 1050 1482 1050Z" /><path data-component="3" d="M1058 1175C1147 1131 1228 1077 1297 1019C1331 1065 1372 1094 1418 1107C1355 1220 1274 1304 1171 1363C1133 1385 1095 1368 1085 1328C1071 1277 1061 1226 1058 1175Z" /><path data-component="4" d="M1497 910C1497 929 1514 945 1532 945C1552 945 1568 929 1568 910C1568 890 1552 875 1532 875C1514 875 1497 890 1497 910Z" /></g></g></svg>